<svg width="29" height="22" viewBox="0 0 29 22" fill="none" xmlns="http://www.w3.org/2000/svg">
<g id="Clip path group">
<mask id="mask0_133_1087" style="mask-type:luminance" maskUnits="userSpaceOnUse" x="0" y="0" width="29" height="22">
<g id="flagSa4x30">
<path id="Vector" d="M0.501465 0.5H28.4987V21.5H0.501465V0.5Z" fill="white"/>
</g>
</mask>
<g mask="url(#mask0_133_1087)">
<g id="Group">
<path id="Vector_2" fill-rule="evenodd" clip-rule="evenodd" d="M-1.25391 0.5H30.2461V21.5H-1.25391V0.5Z" fill="#165D31"/>
<path id="Vector_3" fill-rule="evenodd" clip-rule="evenodd" d="M6.68241 6.45139C6.6496 6.94358 6.60038 7.80491 7.02285 7.89514C7.52734 7.94436 7.24843 7.04202 7.433 6.87795C7.46582 6.79592 7.52734 6.79592 7.53144 6.89846V7.66545C7.53144 7.91155 7.69551 7.98538 7.81855 8.03459C7.9498 8.02639 8.04004 8.03459 8.08926 8.15764L8.15488 9.48245C8.15488 9.48245 8.4584 9.57268 8.47481 8.74006C8.48711 8.24787 8.37637 7.84182 8.44199 7.74748C8.44199 7.65315 8.56504 7.64905 8.64707 7.69416C8.77832 7.7844 8.83575 7.89924 9.04083 7.85823C9.35255 7.76799 9.54122 7.61623 9.54532 7.37834C9.53917 7.14456 9.49052 6.91385 9.40177 6.69748C9.41817 6.65647 9.34434 6.54573 9.36075 6.50471C9.41407 6.59494 9.5002 6.58674 9.51661 6.50471C9.46329 6.33244 9.38126 6.16428 9.25001 6.09455C9.13926 5.99612 8.9752 6.01252 8.92188 6.2176C8.88907 6.45139 9.00391 6.72619 9.17208 6.95588C9.20899 7.04202 9.25821 7.18967 9.2377 7.32092C9.14747 7.37424 9.05723 7.34963 8.9793 7.2717C8.9793 7.2717 8.73321 7.08713 8.73321 7.04202C8.79883 6.62366 8.74551 6.57444 8.7086 6.45549C8.68399 6.29553 8.60606 6.24221 8.54453 6.13557C8.48301 6.06994 8.40098 6.06994 8.35996 6.13557C8.24922 6.32424 8.30254 6.7303 8.38047 6.91487C8.43789 7.08303 8.52403 7.18967 8.48301 7.18967C8.4502 7.28401 8.38047 7.2594 8.32715 7.14866C8.26713 6.9156 8.23816 6.67563 8.24102 6.43498C8.22051 6.24631 8.1959 5.84436 8.06875 5.73772C7.99492 5.63928 7.88418 5.6885 7.84316 5.77873C7.83233 5.96197 7.83645 6.14578 7.85547 6.32834C7.9375 6.63186 7.96621 6.90256 8.00723 7.21018C8.01953 7.62444 7.76933 7.39065 7.78164 7.18147C7.83545 6.91849 7.83125 6.64695 7.76933 6.38577C7.72832 6.27912 7.6832 6.25451 7.58066 6.27092C7.50273 6.27092 7.30175 6.4883 7.24433 6.85745C7.24433 6.85745 7.19511 7.04612 7.1746 7.21428C7.14589 7.40295 7.02284 7.54241 6.93261 7.18967C6.85878 6.93127 6.80956 6.30373 6.68651 6.45139H6.68241Z" fill="white"/>
<path id="Vector_4" fill-rule="evenodd" clip-rule="evenodd" d="M8.05665 8.46504L6.74414 9.09668C6.75645 8.79727 7.36348 8.25996 7.78184 8.25586C8.04844 8.25996 7.98282 8.3584 8.05254 8.46504H8.05665Z" fill="white"/>
<path id="Vector_5" fill-rule="evenodd" clip-rule="evenodd" d="M7.82296 8.87472C7.1339 10.6589 9.44308 10.9091 9.70148 8.94854C9.72609 8.86651 9.82453 8.78858 9.84093 8.91983C9.78761 10.6958 8.05265 10.8147 7.75734 10.2569C7.68786 10.065 7.65314 9.86223 7.6548 9.65811C7.61378 9.30948 7.42921 9.44483 7.4005 9.78936C7.37179 9.98213 7.37999 10.0355 7.37999 10.22C7.47023 11.6228 9.70558 11.0198 10.0706 9.86319C10.2634 9.22335 10.0378 8.75167 10.1403 8.75167C10.3618 8.98956 10.6736 8.78448 10.7433 8.70245C10.772 8.66144 10.8458 8.63273 10.895 8.68605C11.0673 8.80909 11.3708 8.75167 11.4364 8.53429C11.4734 8.31691 11.5021 8.09542 11.5103 7.86984C11.3667 7.91085 11.2642 7.93956 11.2519 8.00109L11.2232 8.18976C11.2109 8.25128 11.0919 8.25128 11.0837 8.17335C11.0304 7.92726 10.8089 7.89855 10.6736 8.27589C10.5874 8.34972 10.4234 8.36612 10.407 8.25538C10.4275 8.00109 10.3249 7.96827 10.1198 8.08722L9.92297 6.60246C10.005 6.60246 10.087 6.66398 10.165 6.56554C10.0829 6.29894 9.89836 5.75754 9.79582 5.71652C9.7507 5.6591 9.70968 5.69602 9.64406 5.71242C9.53742 5.74523 9.43898 5.83547 9.47179 6.01594C9.59484 6.78703 9.67687 7.37355 9.80402 8.14874C9.82453 8.23487 9.7507 8.35382 9.65226 8.34151C9.4882 8.23077 9.44718 8.00519 9.16007 8.01339C8.955 8.01339 8.72531 8.23898 8.6966 8.45226C8.65968 8.62452 8.64738 8.80909 8.6966 8.95675C8.84015 9.12901 9.01242 9.11261 9.16418 9.07569C9.28722 9.02237 9.38976 8.89933 9.43488 8.92804C9.46359 8.96495 9.43898 9.37511 8.84835 9.68682C8.49152 9.85088 8.20441 9.8837 8.05265 9.59249C7.95831 9.40792 8.06085 8.71476 7.82296 8.87472Z" fill="white"/>
<path id="Vector_6" fill-rule="evenodd" clip-rule="evenodd" d="M10.7637 7.06261C10.8991 7.01339 11.5553 6.2587 11.5553 6.2587L11.4569 6.17667C11.42 6.14796 11.4241 6.11515 11.4569 6.08644C11.621 5.988 11.5676 5.78292 11.4856 5.68448C11.4299 5.65734 11.3687 5.64357 11.3067 5.64428C11.2448 5.64499 11.1838 5.66016 11.1288 5.68858C11.0139 5.79933 10.9893 5.97569 11.0796 6.08234C11.1657 6.12335 11.2518 6.21359 11.1944 6.2628C10.9237 6.54992 10.1895 7.04621 10.2756 7.06261C10.2921 7.08722 10.7473 7.08722 10.7596 7.06261H10.7637ZM6.7852 9.72864C6.5391 10.1224 6.5186 10.7089 6.65395 10.8853C6.72778 10.9673 6.84672 11.0042 6.93286 10.9755C7.08872 10.9099 7.15844 10.5941 7.12153 10.4833C7.06821 10.4013 7.02719 10.389 6.97387 10.4546C6.86723 10.6761 6.82211 10.5243 6.80981 10.4013C6.79805 10.1929 6.80906 9.98386 6.84262 9.77785C6.87133 9.60559 6.84262 9.65481 6.7852 9.72864ZM17.3304 9.10109C17.0925 8.5843 16.7603 8.0757 16.6577 7.88293C16.3381 7.37763 15.9988 6.88506 15.6405 6.40636C15.3862 6.10284 16.0589 6.53351 15.5585 5.92648L15.1935 5.61886C15.1114 5.56144 14.9145 5.45479 14.8817 5.62706C14.8653 5.78292 14.8735 5.86495 14.8981 5.9921C14.9186 6.07413 15.0417 6.21769 15.1032 6.29972C15.9441 7.41348 16.6826 8.60093 17.3099 9.84758C17.4165 9.79426 17.3919 9.18723 17.3304 9.10109Z" fill="white"/>
<path id="Vector_7" fill-rule="evenodd" clip-rule="evenodd" d="M16.2847 10.8153C16.2354 10.8686 16.3995 11.0942 16.6128 11.0942C16.9655 11.0532 17.2773 10.8563 17.5644 10.3313C17.681 10.1566 17.7555 9.95724 17.7818 9.74886C17.8165 8.75317 17.7367 7.75679 17.5439 6.77932C17.5316 6.69729 17.5439 6.59885 17.5521 6.57424C17.5767 6.54553 17.6546 6.57424 17.6956 6.50452C17.7571 6.44299 17.5316 5.9303 17.4085 5.73752C17.3675 5.64729 17.347 5.58987 17.2732 5.74573C17.1841 5.9177 17.1416 6.11004 17.1501 6.30354C17.3183 7.47249 17.3716 8.49378 17.4782 9.66273C17.4905 9.77757 17.4741 9.94164 17.3962 10.0073C17.0867 10.3518 16.7079 10.6272 16.2847 10.8153ZM21.063 10.8112C20.8087 10.9588 20.8087 11.127 21.0138 11.1311C21.3666 11.0901 21.7849 11.0614 22.072 10.6266C22.1734 10.4218 22.2321 10.1985 22.2443 9.97035C22.2959 8.98998 22.2312 8.00696 22.0515 7.04182C22.0433 6.95979 22.0064 6.76702 22.0187 6.74241C22.0433 6.68499 22.1582 6.74651 22.1992 6.68088C22.2566 6.61936 21.8998 6.15998 21.7726 5.96311C21.7316 5.87287 21.7152 5.81545 21.6373 5.97131C21.5546 6.14487 21.5288 6.34005 21.5634 6.52913C21.7521 7.80061 21.8916 8.75218 21.9203 9.87601C21.9039 9.98265 21.8998 10.0401 21.8505 10.1754C21.7398 10.3149 21.6167 10.4953 21.5019 10.5815C21.3871 10.6635 21.141 10.7455 21.063 10.8112Z" fill="white"/>
<path id="Vector_8" fill-rule="evenodd" clip-rule="evenodd" d="M21.2514 9.67568C21.2514 9.37626 21.2555 9.12196 21.2473 8.89638C21.2447 8.70533 21.2028 8.51686 21.1243 8.34266C21.0505 8.1745 21.0956 8.03915 21.0587 7.85868C21.0258 7.67821 21.0341 7.40751 20.9848 7.19833C20.9684 7.11629 20.9274 6.84969 20.9397 6.82098C20.9602 6.76356 21.0382 6.82098 21.0792 6.75536C21.1366 6.69383 20.8741 6.01707 20.7428 5.8243C20.6977 5.73817 20.6075 5.76688 20.505 5.90633C20.4024 6.00067 20.4393 6.20985 20.4803 6.41082C20.7305 7.73563 20.9233 8.93739 20.8823 10.1966C20.8659 10.3032 21.2514 9.87665 21.2514 9.67568ZM19.377 8.03505C19.2171 8.02684 18.8848 7.71923 18.7864 7.54286C18.7703 7.49975 18.7634 7.45374 18.7663 7.40781C18.7691 7.36188 18.7815 7.31706 18.8028 7.27626C18.8643 7.23524 18.9546 7.19422 19.0243 7.23524C19.0243 7.23524 19.094 7.33368 19.0817 7.34598C19.1637 7.387 19.2048 7.36649 19.213 7.32958C19.2171 7.26805 19.1884 7.23114 19.1884 7.16551C19.2253 6.97684 19.4344 6.94813 19.5165 7.06708C19.5739 7.1409 19.5985 7.29266 19.6026 7.3952C19.6026 7.44852 19.5206 7.387 19.4673 7.3952C19.4221 7.41161 19.4098 7.46903 19.4057 7.51825C19.3975 7.6536 19.3811 7.87098 19.377 8.03095V8.03505ZM16.4321 10.0038C16.4731 9.60185 16.4157 8.88407 16.4116 8.64618C16.3897 8.03438 16.339 7.42394 16.2599 6.81688C16.2106 6.47235 16.3993 6.85379 16.3747 6.65282C16.3132 6.31239 16.1245 6.0786 15.8989 5.77098C15.8292 5.66844 15.8292 5.64793 15.7184 5.79559C15.5954 6.07039 15.702 6.26317 15.7349 6.48055C15.8948 7.18602 15.9892 7.83407 16.0343 8.47802C16.0815 9.14695 16.087 9.81817 16.0507 10.4878C16.1737 10.4919 16.3624 10.295 16.4321 10.0038Z" fill="white"/>
<path id="Vector_9" fill-rule="evenodd" clip-rule="evenodd" d="M21.7969 9.35946C21.5139 8.88368 21.0914 8.37509 20.9766 8.18232C20.5962 7.6512 20.1968 7.13407 19.7789 6.63194C19.4303 6.2628 19.943 6.57042 19.7133 6.28331C19.5205 6.07413 19.4672 6.0044 19.299 5.87726C19.217 5.82394 19.1678 5.7214 19.135 5.89776C19.1219 6.05053 19.1191 6.204 19.1268 6.35714C19.1268 6.42686 19.2006 6.56221 19.2662 6.64424C20.1152 7.69014 21.0463 8.75654 21.7928 10.0977C21.8994 10.0444 21.8625 9.44149 21.7928 9.35946H21.7969Z" fill="white"/>
<path id="Vector_10" fill-rule="evenodd" clip-rule="evenodd" d="M9.02491 8.48667C9.0044 8.52359 8.95928 8.56871 8.97569 8.61382C9.0044 8.65484 9.03311 8.66714 9.08233 8.66714C9.12745 8.66714 9.19307 8.67945 9.20538 8.65484C9.22999 8.62613 9.24639 8.57281 9.22999 8.51949C9.18077 8.39644 9.04952 8.44566 9.02491 8.48667Z" fill="#165D31"/>
<path id="Vector_11" fill-rule="evenodd" clip-rule="evenodd" d="M18.524 15.3684C18.9013 15.3848 19.1474 15.3889 19.4796 15.4258L19.8734 15.3848C20.3082 15.3438 20.3246 16.0041 20.3246 16.0041C20.3246 16.3938 20.1728 16.4143 19.98 16.4553C19.8693 16.4717 19.816 16.3897 19.7544 16.3077C19.6617 16.3374 19.5629 16.343 19.4673 16.3241C19.3074 16.3159 19.1515 16.3159 18.9957 16.3036C18.8316 16.2912 18.7414 16.3241 18.5732 16.3077C18.5404 16.361 18.4912 16.4348 18.3927 16.4143C18.3107 16.402 18.2082 16.1682 18.2369 15.9836C18.2984 15.8524 18.2779 15.8975 18.2779 15.8401C16.7357 15.7991 15.1812 15.7293 13.6719 15.7498C12.4906 15.7539 11.3258 15.8032 10.1568 15.8524C9.53339 15.8442 9.05762 15.7457 8.72949 15.2659C8.7623 15.2659 10.3209 15.352 10.7762 15.3233C11.617 15.3151 12.3881 15.2453 13.2453 15.2207C14.9351 15.2494 16.6127 15.2494 18.3025 15.3684C18.1384 15.2577 18.1384 14.9993 18.3845 14.9336C18.405 14.9172 18.4173 15.0608 18.4543 15.0567C18.6552 15.0444 18.565 15.3151 18.524 15.3684ZM11.7318 6.04962C11.4775 6.7797 11.8795 7.58361 12.1584 7.50568C12.3635 7.58771 12.4865 7.20216 12.5685 6.7838C12.6301 6.66486 12.6711 6.65255 12.6998 6.71408C12.6916 7.27189 12.7408 7.39904 12.8844 7.5672C13.2043 7.8133 13.4709 7.60002 13.4914 7.57951L13.7375 7.32931C13.7949 7.26779 13.8687 7.26779 13.9467 7.31701C14.0246 7.38673 14.0123 7.50568 14.1763 7.58771C14.3158 7.64513 14.607 7.60412 14.6767 7.48517C14.767 7.32521 14.7916 7.27189 14.8326 7.21447C14.8982 7.12833 15.009 7.16525 15.009 7.19396C14.9967 7.24318 14.931 7.2883 14.9761 7.37853C15.0582 7.43595 15.0746 7.39904 15.1197 7.38673C15.2838 7.3047 15.4068 6.95197 15.4068 6.95197C15.4109 6.82072 15.3371 6.82892 15.2879 6.86173L15.1607 6.94787C15.0787 6.96017 14.9269 7.01349 14.849 6.89455C14.7711 6.75509 14.7711 6.55412 14.7136 6.41056C14.7136 6.40236 14.607 6.18497 14.7054 6.17267C14.7547 6.18087 14.8572 6.20958 14.8736 6.12345C14.9228 6.03732 14.767 5.79532 14.6562 5.67228C14.5619 5.56974 14.4306 5.55743 14.3035 5.66407C14.2133 5.74611 14.2256 5.83634 14.2092 5.92247C14.1936 5.9842 14.1929 6.04874 14.2072 6.11077C14.2214 6.17281 14.2502 6.23058 14.2912 6.27931C14.3814 6.45158 14.5414 6.67716 14.4881 6.99708C14.4881 6.99708 14.3937 7.14474 14.2297 7.12423C14.1599 7.11193 14.0492 7.08322 13.9918 6.64025C13.9467 6.31212 14 5.84454 13.8605 5.62716C13.8072 5.49181 13.7703 5.36466 13.6472 5.59025C13.6144 5.68048 13.4709 5.81583 13.5734 6.09064C13.6704 6.33827 13.6988 6.60752 13.6554 6.86994C13.5939 6.96017 13.5816 6.98888 13.5037 7.07501C13.397 7.19806 13.2781 7.16525 13.1879 7.12013C13.1058 7.06681 13.0402 7.0381 12.9992 6.85353C13.0074 6.56642 13.0238 6.09474 12.9705 5.9963C12.8926 5.84044 12.7654 5.89786 12.7121 5.94708C12.4681 6.21813 12.3047 6.55198 12.2404 6.91095C12.1666 7.14884 12.0887 7.07912 12.0353 6.98478C11.9041 6.86173 11.8918 5.88966 11.7318 6.04962Z" fill="white"/>
<path id="Vector_12" fill-rule="evenodd" clip-rule="evenodd" d="M12.5027 7.64089C12.6216 7.55886 12.5683 7.50143 12.7406 7.6737C12.9629 8.06712 13.092 8.50632 13.1179 8.95749C13.1097 9.06413 13.1835 9.12975 13.2205 9.10514C13.2369 8.85905 13.8398 8.51452 14.3935 8.4653C14.4755 8.44479 14.4345 8.28483 14.4468 8.2028C14.414 7.89518 14.6191 7.61628 14.9062 7.59577C15.2999 7.65319 15.4312 7.86237 15.4394 8.17819C15.3943 8.79342 14.7544 8.89596 14.3976 8.94518C14.3443 8.96569 14.3197 8.9903 14.3976 9.01901L15.8988 9.02721L15.9767 9.06823C15.9849 9.10924 15.9521 9.07643 15.8947 9.17487C15.8121 9.31994 15.7604 9.48054 15.7429 9.64655C15.2958 9.7942 14.8324 9.85162 14.3648 9.91315C14.2007 9.99518 14.1187 10.1059 14.1515 10.229C14.2089 10.3643 14.5699 10.5038 14.5699 10.5079C14.6396 10.5489 14.7175 10.6514 14.5494 10.8606C13.8193 10.8278 13.2492 10.5161 13.0523 10.0772C12.9949 10.0321 12.9292 10.0772 12.8882 10.1346C12.6011 10.5038 12.3222 10.8319 11.8341 11.0124C11.547 11.0862 11.2476 10.9672 11.1082 10.7786C11.0138 10.6678 11.0179 10.5489 10.9851 10.5243C10.8251 10.594 9.47163 11.1682 9.64389 10.8975C9.97202 10.5489 10.5462 10.2864 11.0466 9.94186C11.0835 9.82291 11.1492 9.42916 11.346 9.30202C11.3583 9.30202 11.3173 9.5317 11.3214 9.63014C11.3214 9.71217 11.3132 9.74088 11.3296 9.72037C11.3665 9.69987 11.9736 9.21999 12.0269 9.07233C12.0843 8.9903 12.0392 8.77702 12.0392 8.76881C11.9244 8.4735 11.7644 8.44889 11.707 8.30124C11.6537 8.10846 11.6783 7.88698 11.789 7.82136C11.8874 7.73522 12.0023 7.74343 12.113 7.84186C12.2361 7.95261 12.3427 8.16999 12.3755 8.32995C12.355 8.39147 12.2115 8.28893 12.1705 8.31764C12.2494 8.40837 12.3019 8.51903 12.3222 8.63756C12.4042 8.97389 12.3796 9.10514 12.2976 9.32252C12.0269 9.89264 11.6824 10.0608 11.3789 10.2741C11.3707 10.2741 11.3665 10.4176 11.4773 10.4956C11.5183 10.5366 11.6783 10.5571 11.8628 10.4956C12.2572 10.2766 12.576 9.94344 12.7775 9.53991C12.8123 9.23285 12.7787 8.92188 12.679 8.62936C12.5601 8.35456 12.4207 7.96491 12.4207 7.95671C12.4165 7.78444 12.4289 7.72702 12.5027 7.64089ZM8.57339 6.05769C8.74565 6.13972 9.07378 6.10281 9.05737 5.8239L9.04917 5.69675C9.01636 5.61472 8.91792 5.63523 8.89741 5.71726C8.88921 5.74597 8.90972 5.79109 8.88511 5.80339C8.8687 5.8198 8.81538 5.8116 8.81538 5.73367C8.81538 5.70906 8.79897 5.68445 8.78667 5.66804C8.77847 5.65984 8.77026 5.65984 8.74975 5.65984C8.72515 5.65984 8.72515 5.66394 8.71284 5.68445C8.70874 5.70496 8.70054 5.72546 8.70054 5.75007C8.70054 5.77878 8.68413 5.78699 8.66772 5.79109C8.64311 5.79109 8.64722 5.79109 8.62671 5.78289C8.6185 5.77058 8.6062 5.76648 8.6062 5.74187L8.5939 5.67624C8.58569 5.66394 8.56929 5.65574 8.55288 5.65164C8.45854 5.65164 8.45034 5.76238 8.45854 5.80339C8.45034 5.8116 8.44624 6.00437 8.57339 6.05769Z" fill="white"/>
<path id="Vector_13" fill-rule="evenodd" clip-rule="evenodd" d="M13.6389 8.19958C13.8112 8.28162 14.2255 8.2365 14.1229 7.9699L14.1147 7.83864C14.0778 7.75661 13.9835 7.77712 13.963 7.86325C13.9547 7.88786 13.9753 7.93298 13.9465 7.94529C13.9342 7.96169 13.8768 7.95349 13.8809 7.87966C13.8809 7.85505 13.8645 7.82634 13.8522 7.80993C13.8399 7.80583 13.8358 7.80173 13.8112 7.80173C13.7907 7.80173 13.7907 7.80993 13.7784 7.83044C13.7702 7.85095 13.7661 7.87146 13.7661 7.89607C13.762 7.92068 13.7497 7.92888 13.7292 7.93708C13.7087 7.93708 13.7128 7.93708 13.6964 7.92478C13.684 7.91247 13.6717 7.90837 13.6717 7.88786L13.6594 7.82224C13.6512 7.80993 13.6348 7.80173 13.6184 7.79763C13.5241 7.79763 13.5159 7.90427 13.52 7.94529C13.5159 7.95349 13.5118 8.15037 13.643 8.19958H13.6389ZM16.5921 7.31364C16.7643 7.39567 17.0884 7.35876 17.076 7.08395L17.0678 6.9527C17.0309 6.87067 16.9366 6.89118 16.9161 6.97321C16.9079 7.00192 16.9284 7.04704 16.8997 7.06345C16.8874 7.07575 16.83 7.06755 16.8341 6.98962C16.8341 6.96501 16.8176 6.9404 16.8053 6.92399C16.793 6.91579 16.7889 6.91579 16.7643 6.91579C16.7438 6.91579 16.7438 6.92399 16.7315 6.9445L16.7192 7.00603C16.7151 7.03474 16.7028 7.04704 16.6823 7.04704C16.6618 7.04704 16.6659 7.04704 16.6495 7.03884C16.6372 7.02653 16.6249 7.02243 16.6249 7.00192C16.6249 6.98142 16.6208 6.9486 16.6126 6.9322C16.6044 6.91989 16.588 6.91579 16.5716 6.91169C16.4772 6.91169 16.469 7.01833 16.4731 7.05935C16.469 7.06755 16.4649 7.26032 16.5962 7.31364H16.5921ZM18.1219 9.5408C17.8225 9.88123 17.9538 10.4431 18.0235 10.5662C18.1219 10.7631 18.1999 10.8902 18.3927 10.9887C18.569 11.1158 18.7085 11.0379 18.7823 10.9476C18.9587 10.7631 18.9628 10.2914 19.0448 10.2012C19.1022 10.0289 19.2499 10.0576 19.3196 10.1355C19.3848 10.2281 19.4723 10.3029 19.5739 10.3529C19.738 10.4965 19.9348 10.5252 20.1317 10.3939C20.263 10.316 20.3491 10.2217 20.427 10.0289C20.5091 9.7992 20.468 8.73279 20.4475 8.10115L20.2753 7.21931C20.2753 7.2111 20.2548 6.80095 20.2343 6.70661C20.2343 6.66559 20.222 6.65329 20.263 6.65739C20.3081 6.69841 20.3122 6.69841 20.345 6.71071C20.386 6.71891 20.427 6.64098 20.3983 6.57536L19.9882 5.81247C19.9553 5.77965 19.9102 5.74684 19.8569 5.82067C19.8255 5.84915 19.8004 5.88399 19.7834 5.92288C19.7665 5.96177 19.758 6.00383 19.7585 6.04626C19.7708 6.22672 19.7995 6.4113 19.8118 6.59177L19.9759 7.51872C20.0292 8.17497 20.0415 8.71638 20.0948 9.37674C20.0866 9.65564 20.0005 9.89764 19.9184 9.93455C19.9184 9.93455 19.7954 10.0043 19.7134 9.92635C19.6518 9.90174 19.4098 9.52029 19.4098 9.52029C19.2868 9.40955 19.2048 9.43826 19.1186 9.52029C18.8725 9.75818 18.7659 10.193 18.5977 10.4965C18.5567 10.5662 18.4337 10.6195 18.3024 10.4924C17.9661 10.0289 18.163 9.37264 18.1219 9.5408ZM16.67 5.69762C16.8258 5.75914 16.9325 6.07497 16.8997 6.23083C16.8669 6.4154 16.7848 6.62048 16.7274 6.59587C16.6618 6.57126 16.7684 6.40719 16.7069 6.23493C16.6741 6.12008 16.4608 5.91501 16.4854 5.85758C16.4444 5.73043 16.5757 5.67301 16.67 5.69352V5.69762Z" fill="white"/>
<path id="Vector_14" fill-rule="evenodd" clip-rule="evenodd" d="M18.6224 9.72823C18.6511 9.35089 18.5978 9.1212 18.5896 8.89972C18.5814 8.67823 18.3394 6.98839 18.2902 6.82432C18.2286 6.5044 18.524 6.78331 18.4911 6.59464C18.3886 6.36495 18.1384 6.02452 18.0605 5.82354C18.0113 5.74151 18.0318 5.65948 17.9251 5.80303C17.8333 6.05473 17.801 6.32427 17.8308 6.59053C18.0851 7.91534 18.3435 9.01456 18.3025 10.2737C18.4255 10.2737 18.5609 9.99893 18.6224 9.72823ZM21.2638 6.2296C21.4074 6.29932 21.4894 6.69307 21.473 6.80382C21.4443 7.00889 21.3705 7.23038 21.3171 7.20167C21.2556 7.17706 21.3294 6.89815 21.3007 6.81202C21.2679 6.68897 21.0751 6.46749 21.0956 6.40186C21.0546 6.26241 21.1777 6.20499 21.2638 6.2296ZM10.7761 9.01456C10.9114 9.06788 10.9934 9.35499 10.9811 9.43702C10.9483 9.58878 10.8786 9.75284 10.8253 9.72823C10.772 9.71182 10.8376 9.50675 10.813 9.44112C10.8007 9.28936 10.612 9.20733 10.6161 9.14171C10.5833 9.01866 10.6981 8.99815 10.7802 9.01456H10.7761Z" fill="white"/>
<path id="Vector_15" fill-rule="evenodd" clip-rule="evenodd" d="M14.0409 9.44883C14.2132 9.45703 14.2993 9.59648 14.1393 9.65391C13.9753 9.70723 13.8235 9.75234 13.8194 9.98203C13.8809 10.3102 13.7374 10.1953 13.6553 10.1543C13.5569 10.0805 13.278 9.9082 13.237 9.53906C13.2329 9.45293 13.3026 9.375 13.4134 9.375C13.5774 9.42012 13.8235 9.42422 14.0409 9.44883Z" fill="#165D31"/>
<path id="Vector_16" fill-rule="evenodd" clip-rule="evenodd" d="M7.17079 5.60247C7.36767 5.65989 7.37997 5.9552 7.36767 6.04134C7.33896 6.1972 7.26923 6.36536 7.22001 6.34485C7.16259 6.32434 7.22001 6.11106 7.1913 6.04544C7.16259 5.9552 6.99443 5.78294 7.01083 5.73372C6.97392 5.63118 7.09286 5.58196 7.17079 5.60247ZM11.1042 6.98059C10.9483 7.06262 10.8909 7.30872 10.9852 7.45637C11.0755 7.57942 11.2149 7.5343 11.2313 7.5343C11.3831 7.55071 11.4733 7.25129 11.4733 7.25129C11.4733 7.25129 11.4774 7.16926 11.3011 7.32922C11.2231 7.34153 11.219 7.31282 11.1985 7.2718C11.1797 7.19372 11.1869 7.11164 11.219 7.03801C11.2477 6.96418 11.1903 6.93137 11.1042 6.98059ZM12.2526 5.48763C12.1706 5.54095 12.0188 5.70091 12.0147 5.88138C12.0106 5.98391 11.9901 5.98391 12.0557 6.04544C12.1091 6.11927 12.1542 6.11516 12.2526 6.06184C12.2771 6.0464 12.2982 6.02603 12.3144 6.00203C12.3307 5.97802 12.3417 5.9509 12.347 5.92239C12.3716 5.80755 12.2239 5.97981 12.2075 5.84856C12.1747 5.72552 12.269 5.6763 12.3593 5.56146C12.3593 5.47942 12.3593 5.4261 12.2485 5.48763H12.2526ZM13.1714 5.65169C13.1352 5.80104 13.1132 5.95348 13.1057 6.10696C13.0811 6.2218 13.2288 6.27102 13.2903 6.12337C13.3887 5.85677 13.3887 5.74192 13.397 5.63118C13.3682 5.45481 13.2493 5.45892 13.1714 5.65169ZM18.9956 8.61711C19.012 8.5966 19.8159 8.02649 19.8159 8.02649C19.8979 7.99778 19.8774 8.3218 19.8405 8.3177C19.5912 8.55797 19.3044 8.75607 18.9915 8.90422C18.9505 8.93293 18.9135 8.68684 18.9915 8.61711H18.9956ZM19.7215 8.60891C19.8651 8.67863 19.9225 9.09289 19.9061 9.20363C19.9061 9.42511 19.7708 9.59738 19.7133 9.57277C19.6559 9.54406 19.7215 9.29797 19.6928 9.21183C19.66 9.08879 19.5411 8.8632 19.5616 8.79758C19.5206 8.65812 19.6354 8.5843 19.7256 8.60891H19.7215ZM14.9637 10.389C15.0303 10.3113 15.1076 10.2436 15.1934 10.188C15.2755 10.147 15.3493 10.2208 15.3452 10.2167C15.3575 10.2987 15.296 10.3685 15.3165 10.4751C15.3329 10.5161 15.3452 10.5653 15.4231 10.5489C15.5503 10.4464 15.6692 10.4382 15.7923 10.4341C15.8948 10.4382 15.8989 10.6064 15.8333 10.6064C15.5995 10.6556 15.4969 10.7212 15.3288 10.7827C15.2467 10.8319 15.1811 10.7704 15.1811 10.7663C15.1811 10.7622 15.136 10.7212 15.1647 10.6146C15.1729 10.5325 15.1401 10.4833 15.0663 10.4915C15.0171 10.5243 14.9678 10.5407 14.9432 10.4792C14.9309 10.4382 14.9268 10.4136 14.9637 10.389ZM20.5665 10.6105C20.5993 10.6515 20.6239 10.6925 20.5624 10.7663L20.4106 10.8976C20.386 10.9386 20.3696 11.0124 20.4516 11.0329C20.5993 11.0739 20.9438 10.8484 20.9438 10.8443C21.0012 10.8032 20.9848 10.7212 20.9766 10.7212C20.9438 10.6843 20.87 10.7089 20.8208 10.7007C20.7962 10.7007 20.7182 10.6925 20.7551 10.6187C20.7827 10.5824 20.8048 10.5424 20.8208 10.4997C20.8413 10.4505 20.8208 10.4177 20.7387 10.389C20.6526 10.3726 20.6157 10.3808 20.5213 10.389C20.4721 10.3972 20.4557 10.4218 20.4434 10.4833C20.4475 10.5776 20.5049 10.5735 20.5665 10.6064V10.6105Z" fill="white"/>
<path id="Vector_17" fill-rule="evenodd" clip-rule="evenodd" d="M14.9926 8.2805C14.9721 8.32152 14.8983 8.32152 14.8286 8.2805C14.7589 8.23949 14.7178 8.17386 14.7424 8.13695C14.7671 8.10003 14.8368 8.10003 14.9065 8.13695C14.9762 8.17386 15.0132 8.24359 14.9926 8.2805ZM11.3422 6.08208C11.3012 6.09438 11.2438 6.05747 11.2192 6.00005C11.1946 5.94263 11.2069 5.89341 11.2479 5.8811C11.2889 5.8688 11.3422 5.90981 11.3709 5.96313C11.3996 6.01645 11.3832 6.07388 11.3381 6.08618L11.3422 6.08208ZM18.5651 15.8806C18.9507 15.8971 19.3116 15.8806 19.6931 15.9012C19.7628 15.9627 19.7136 16.1062 19.6685 16.098L19.3485 16.0857C19.3444 15.9627 19.0327 15.9832 19.0409 16.0898C18.8728 16.1103 18.721 16.0857 18.5487 16.0775C18.4995 16.016 18.5077 15.9053 18.5651 15.8806Z" fill="#165D31"/>
</g>
</g>
</g>
</svg>
