<svg width="40" height="38" viewBox="0 0 40 38" fill="none" xmlns="http://www.w3.org/2000/svg">
<g id="Protect Cloud">
<path id="Union" fill-rule="evenodd" clip-rule="evenodd" d="M17.6228 31.6135C17.2539 31.6527 16.8793 31.6729 16.5 31.6729C10.701 31.6729 6 26.9718 6 21.1729C6 15.3739 10.701 10.6729 16.5 10.6729C16.8793 10.6729 17.2539 10.693 17.6228 10.7322C14.2344 12.9682 11.9986 16.8094 11.9986 21.1729C11.9986 25.5363 14.2344 29.3775 17.6228 31.6135ZM20.4993 30.8844C16.6841 29.3115 13.9986 25.5558 13.9986 21.1729C13.9986 16.7899 16.6841 13.0342 20.4993 11.4613C24.3146 13.0342 27 16.7899 27 21.1729C27 25.5558 24.3146 29.3115 20.4993 30.8844ZM20.4993 33.0194C19.2436 33.4431 17.8986 33.6729 16.5 33.6729C9.59644 33.6729 4 28.0764 4 21.1729C4 14.2693 9.59644 8.67285 16.5 8.67285C17.8986 8.67285 19.2436 8.90256 20.4993 9.32632C21.755 8.90256 23.1 8.67285 24.4986 8.67285C31.4022 8.67285 36.9986 14.2693 36.9986 21.1729C36.9986 28.0764 31.4022 33.6729 24.4986 33.6729C23.1 33.6729 21.755 33.4431 20.4993 33.0194ZM23.3758 10.7322C23.7447 10.693 24.1193 10.6729 24.4986 10.6729C30.2976 10.6729 34.9986 15.3739 34.9986 21.1729C34.9986 26.9718 30.2976 31.6729 24.4986 31.6729C24.1193 31.6729 23.7447 31.6527 23.3758 31.6135C26.7643 29.3775 29 25.5363 29 21.1729C29 16.8094 26.7643 12.9682 23.3758 10.7322Z" fill="#0F0BC7"/>
</g>
</svg>
